ffmpeg started on 2025-04-30 at 17:56:35
Report written to "D:\Convert\FFMetrics\reports\ssim_report-6.txt"
Log level: 32
Command line:
ffmpeg -hide_banner -nostdin -i "G:\\\xc0\xed\xe8\xec\xe5\\\xce\xed\xe3\xee\xe8\xed\xe3\xe8\\!_35_\xcb\xe5\xf2\xee_2024\\JamClub\\\xcc\xe5\xf7 \xe8 \xe6\xe5\xe7\xeb \xc2\xe8\xf1\xf2\xee\xf0\xe8\xe8\\JamClub_Tsue_to_Tsurugi_no_Wistoria_01_1080p_HEVC.mkv" -i "G:\\\xc0\xed\xe8\xec\xe5\\\xce\xed\xe3\xee\xe8\xed\xe3\xe8\\!_35_\xcb\xe5\xf2\xee_2024\\JamClub\\\xcc\xe5\xf7 \xe8 \xe6\xe5\xe7\xeb \xc2\xe8\xf1\xf2\xee\xf0\xe8\xe8\\JamClub_Tsue_to_Tsurugi_no_Wistoria_01_1080p.mp4" -lavfi "[0:v]settb=AVTB,setpts=PTS-STARTPTS,format=pix_fmts=yuv420p10,fps=24000/1001,scale=1920:1080:flags=bicubic[main];[1:v]settb=AVTB,setpts=PTS-STARTPTS,format=pix_fmts=yuv420p,fps=24000/1001,scale=1920:1080:flags=bicubic[ref];[main][ref]ssim=eof_action=endall:stats_file='D\\:/Convert/FFMetrics/logs/ssim_logfile-6.txt'" -f null -
Input #0, matroska,webm, from 'G:\Аниме\Онгоинги\!_35_Лето_2024\JamClub\Меч и жезл Вистории\JamClub_Tsue_to_Tsurugi_no_Wistoria_01_1080p_HEVC.mkv':
  Metadata:
    COMPATIBLE_BRANDS: isomiso2avc1mp41
    MAJOR_BRAND     : isom
    MINOR_VERSION   : 512
    ENCODER         : Lavf61.7.100
  Duration: 00:24:08.28, start: -0.001000, bitrate: 1284 kb/s
  Stream #0:0: Video: hevc (Main 10), yuv420p10le(tv, bt709, progressive), 1920x1080 [SAR 1:1 DAR 16:9], 23.98 fps, 23.98 tbr, 1k tbn (default)
      Metadata:
        HANDLER_NAME    : VideoHandler
        VENDOR_ID       : [0][0][0][0]
        ENCODER         : Lavc61.19.100 libx265
        BPS             : 1086608
        DURATION        : 00:24:08.196708333
        NUMBER_OF_FRAMES: 34722
        NUMBER_OF_BYTES : 196702692
        _STATISTICS_WRITING_APP: mkvpropedit v66.0.0 ('Josie') 64-bit
        _STATISTICS_WRITING_DATE_UTC: 2025-04-29 11:06:27
        _STATISTICS_TAGS: BPS DURATION NUMBER_OF_FRAMES NUMBER_OF_BYTES
  Stream #0:1(eng): Audio: aac (LC), 48000 Hz, stereo, fltp (default)
      Metadata:
        HANDLER_NAME    : SoundHandler
        VENDOR_ID       : [0][0][0][0]
        ENCODER         : Lavc61.19.100 aac
        BPS             : 193834
        DURATION        : 00:24:08.237000000
        NUMBER_OF_FRAMES: 67887
        NUMBER_OF_BYTES : 35089798
        _STATISTICS_WRITING_APP: mkvpropedit v66.0.0 ('Josie') 64-bit
        _STATISTICS_WRITING_DATE_UTC: 2025-04-29 11:06:27
        _STATISTICS_TAGS: BPS DURATION NUMBER_OF_FRAMES NUMBER_OF_BYTES
Input #1, mov,mp4,m4a,3gp,3g2,mj2, from 'G:\Аниме\Онгоинги\!_35_Лето_2024\JamClub\Меч и жезл Вистории\JamClub_Tsue_to_Tsurugi_no_Wistoria_01_1080p.mp4':
  Metadata:
    major_brand     : isom
    minor_version   : 512
    compatible_brands: isomiso2avc1mp41
    encoder         : Lavf60.16.100
  Duration: 00:24:08.26, start: 0.000000, bitrate: 4085 kb/s
  Stream #1:0[0x1](und): Video: h264 (High) (avc1 / 0x31637661), yuv420p(progressive), 1920x1080 [SAR 1:1 DAR 16:9], 3887 kb/s, 23.98 fps, 23.98 tbr, 90k tbn (default)
      Metadata:
        handler_name    : VideoHandler
        vendor_id       : [0][0][0][0]
  Stream #1:1[0x2](eng): Audio: aac (LC) (mp4a / 0x6134706D), 48000 Hz, stereo, fltp, 191 kb/s (default)
      Metadata:
        handler_name    : SoundHandler
        vendor_id       : [0][0][0][0]
Stream mapping:
  Stream #0:0 (hevc) -> settb:default
  Stream #1:0 (h264) -> settb:default
  ssim:default -> Stream #0:0 (wrapped_avframe)
  Stream #0:1 -> #0:1 (aac (native) -> pcm_s16le (native))
Output #0, null, to 'pipe:':
  Metadata:
    COMPATIBLE_BRANDS: isomiso2avc1mp41
    MAJOR_BRAND     : isom
    MINOR_VERSION   : 512
    encoder         : Lavf61.7.100
  Stream #0:0: Video: wrapped_avframe, yuv420p10le(tv, bt709, progressive), 1920x1080 [SAR 1:1 DAR 16:9], q=2-31, 200 kb/s, 23.98 fps, 23.98 tbn
      Metadata:
        encoder         : Lavc61.19.100 wrapped_avframe
  Stream #0:1(eng): Audio: pcm_s16le, 48000 Hz, stereo, s16, 1536 kb/s (default)
      Metadata:
        HANDLER_NAME    : SoundHandler
        VENDOR_ID       : [0][0][0][0]
        _STATISTICS_TAGS: BPS DURATION NUMBER_OF_FRAMES NUMBER_OF_BYTES
        BPS             : 193834
        DURATION        : 00:24:08.237000000
        NUMBER_OF_FRAMES: 67887
        NUMBER_OF_BYTES : 35089798
        _STATISTICS_WRITING_APP: mkvpropedit v66.0.0 ('Josie') 64-bit
        _STATISTICS_WRITING_DATE_UTC: 2025-04-29 11:06:27
        encoder         : Lavc61.19.100 pcm_s16le
frame=  111 fps=0.0 q=-0.0 size=N/A time=00:00:04.62 bitrate=N/A speed=   9x    frame=  269 fps=262 q=-0.0 size=N/A time=00:00:11.21 bitrate=N/A speed=10.9x    frame=  473 fps=305 q=-0.0 size=N/A time=00:00:19.72 bitrate=N/A speed=12.7x    frame=  687 fps=334 q=-0.0 size=N/A time=00:00:28.65 bitrate=N/A speed=13.9x    frame=  933 fps=363 q=-0.0 size=N/A time=00:00:38.91 bitrate=N/A speed=15.2x    frame= 1167 fps=377 q=-0.0 size=N/A time=00:00:48.67 bitrate=N/A speed=15.7x    frame= 1378 fps=382 q=-0.0 size=N/A time=00:00:57.47 bitrate=N/A speed=15.9x    frame= 1595 fps=388 q=-0.0 size=N/A time=00:01:06.52 bitrate=N/A speed=16.2x    frame= 1848 fps=398 q=-0.0 size=N/A time=00:01:17.07 bitrate=N/A speed=16.6x    frame= 2102 fps=408 q=-0.0 size=N/A time=00:01:27.67 bitrate=N/A speed=  17x    frame= 2336 fps=413 q=-0.0 size=N/A time=00:01:37.43 bitrate=N/A speed=17.2x    frame= 2579 fps=417 q=-0.0 size=N/A time=00:01:47.56 bitrate=N/A speed=17.4x    frame= 2824 fps=422 q=-0.0 size=N/A time=00:01:57.78 bitrate=N/A speed=17.6x    frame= 3096 fps=429 q=-0.0 size=N/A time=00:02:09.12 bitrate=N/A speed=17.9x    frame= 3355 fps=434 q=-0.0 size=N/A time=00:02:19.93 bitrate=N/A speed=18.1x    frame= 3644 fps=442 q=-0.0 size=N/A time=00:02:31.98 bitrate=N/A speed=18.4x    frame= 3914 fps=447 q=-0.0 size=N/A time=00:02:43.24 bitrate=N/A speed=18.6x    frame= 4160 fps=449 q=-0.0 size=N/A time=00:02:53.50 bitrate=N/A speed=18.7x    frame= 4434 fps=453 q=-0.0 size=N/A time=00:03:04.93 bitrate=N/A speed=18.9x    frame= 4707 fps=457 q=-0.0 size=N/A time=00:03:16.32 bitrate=N/A speed=  19x    frame= 4898 fps=452 q=-0.0 size=N/A time=00:03:24.28 bitrate=N/A speed=18.9x    frame= 5114 fps=451 q=-0.0 size=N/A time=00:03:33.29 bitrate=N/A speed=18.8x    frame= 5359 fps=452 q=-0.0 size=N/A time=00:03:43.51 bitrate=N/A speed=18.8x    frame= 5587 fps=452 q=-0.0 size=N/A time=00:03:53.02 bitrate=N/A speed=18.8x    frame= 5843 fps=453 q=-0.0 size=N/A time=00:04:03.70 bitrate=N/A speed=18.9x    frame= 6071 fps=453 q=-0.0 size=N/A time=00:04:13.21 bitrate=N/A speed=18.9x    frame= 6339 fps=456 q=-0.0 size=N/A time=00:04:24.38 bitrate=N/A speed=  19x    frame= 6592 fps=457 q=-0.0 size=N/A time=00:04:34.94 bitrate=N/A speed=19.1x    frame= 6855 fps=458 q=-0.0 size=N/A time=00:04:45.91 bitrate=N/A speed=19.1x    frame= 7100 fps=459 q=-0.0 size=N/A time=00:04:56.12 bitrate=N/A speed=19.2x    frame= 7371 fps=461 q=-0.0 size=N/A time=00:05:07.43 bitrate=N/A speed=19.2x    frame= 7620 fps=462 q=-0.0 size=N/A time=00:05:17.81 bitrate=N/A speed=19.3x    frame= 7897 fps=464 q=-0.0 size=N/A time=00:05:29.37 bitrate=N/A speed=19.4x    frame= 8150 fps=465 q=-0.0 size=N/A time=00:05:39.92 bitrate=N/A speed=19.4x    frame= 8401 fps=465 q=-0.0 size=N/A time=00:05:50.39 bitrate=N/A speed=19.4x    frame= 8667 fps=467 q=-0.0 size=N/A time=00:06:01.48 bitrate=N/A speed=19.5x    frame= 8896 fps=466 q=-0.0 size=N/A time=00:06:11.03 bitrate=N/A speed=19.4x    frame= 9141 fps=467 q=-0.0 size=N/A time=00:06:21.25 bitrate=N/A speed=19.5x    frame= 9370 fps=466 q=-0.0 size=N/A time=00:06:30.80 bitrate=N/A speed=19.4x    frame= 9617 fps=466 q=-0.0 size=N/A time=00:06:41.10 bitrate=N/A speed=19.5x    frame= 9877 fps=467 q=-0.0 size=N/A time=00:06:51.95 bitrate=N/A speed=19.5x    frame=10116 fps=467 q=-0.0 size=N/A time=00:07:01.92 bitrate=N/A speed=19.5x    frame=10358 fps=467 q=-0.0 size=N/A time=00:07:12.01 bitrate=N/A speed=19.5x    frame=10611 fps=468 q=-0.0 size=N/A time=00:07:22.56 bitrate=N/A speed=19.5x    frame=10809 fps=466 q=-0.0 size=N/A time=00:07:30.82 bitrate=N/A speed=19.4x    frame=10995 fps=464 q=-0.0 size=N/A time=00:07:38.58 bitrate=N/A speed=19.3x    frame=11235 fps=464 q=-0.0 size=N/A time=00:07:48.63 bitrate=N/A speed=19.3x    frame=11443 fps=462 q=-0.0 size=N/A time=00:07:57.26 bitrate=N/A speed=19.3x    frame=11710 fps=464 q=-0.0 size=N/A time=00:08:08.40 bitrate=N/A speed=19.3x    frame=11966 fps=464 q=-0.0 size=N/A time=00:08:19.08 bitrate=N/A speed=19.4x    frame=12213 fps=465 q=-0.0 size=N/A time=00:08:29.38 bitrate=N/A speed=19.4x    frame=12476 fps=465 q=-0.0 size=N/A time=00:08:40.35 bitrate=N/A speed=19.4x    frame=12743 fps=466 q=-0.0 size=N/A time=00:08:51.48 bitrate=N/A speed=19.4x    frame=12999 fps=467 q=-0.0 size=N/A time=00:09:02.16 bitrate=N/A speed=19.5x    frame=13236 fps=467 q=-0.0 size=N/A time=00:09:12.05 bitrate=N/A speed=19.5x    frame=13482 fps=467 q=-0.0 size=N/A time=00:09:22.31 bitrate=N/A speed=19.5x    frame=13684 fps=466 q=-0.0 size=N/A time=00:09:30.73 bitrate=N/A speed=19.4x    frame=13851 fps=463 q=-0.0 size=N/A time=00:09:37.70 bitrate=N/A speed=19.3x    frame=14100 fps=464 q=-0.0 size=N/A time=00:09:48.08 bitrate=N/A speed=19.3x    frame=14335 fps=464 q=-0.0 size=N/A time=00:09:57.88 bitrate=N/A speed=19.3x    frame=14611 fps=465 q=-0.0 size=N/A time=00:10:09.40 bitrate=N/A speed=19.4x    frame=14855 fps=465 q=-0.0 size=N/A time=00:10:19.57 bitrate=N/A speed=19.4x    frame=15114 fps=465 q=-0.0 size=N/A time=00:10:30.37 bitrate=N/A speed=19.4x    frame=15397 fps=467 q=-0.0 size=N/A time=00:10:42.18 bitrate=N/A speed=19.5x    frame=15663 fps=467 q=-0.0 size=N/A time=00:10:53.27 bitrate=N/A speed=19.5x    frame=15926 fps=468 q=-0.0 size=N/A time=00:11:04.24 bitrate=N/A speed=19.5x    frame=16216 fps=469 q=-0.0 size=N/A time=00:11:16.34 bitrate=N/A speed=19.6x    frame=16486 fps=470 q=-0.0 size=N/A time=00:11:27.60 bitrate=N/A speed=19.6x    frame=16743 fps=471 q=-0.0 size=N/A time=00:11:38.32 bitrate=N/A speed=19.6x    frame=17000 fps=471 q=-0.0 size=N/A time=00:11:49.04 bitrate=N/A speed=19.6x    frame=17250 fps=471 q=-0.0 size=N/A time=00:11:59.46 bitrate=N/A speed=19.7x    frame=17498 fps=471 q=-0.0 size=N/A time=00:12:09.81 bitrate=N/A speed=19.7x    frame=17758 fps=472 q=-0.0 size=N/A time=00:12:20.65 bitrate=N/A speed=19.7x    frame=17982 fps=471 q=-0.0 size=N/A time=00:12:29.99 bitrate=N/A speed=19.7x    frame=18171 fps=470 q=-0.0 size=N/A time=00:12:37.88 bitrate=N/A speed=19.6x    frame=18330 fps=468 q=-0.0 size=N/A time=00:12:44.51 bitrate=N/A speed=19.5x    frame=18539 fps=467 q=-0.0 size=N/A time=00:12:53.23 bitrate=N/A speed=19.5x    frame=18793 fps=467 q=-0.0 size=N/A time=00:13:03.82 bitrate=N/A speed=19.5x    frame=19020 fps=467 q=-0.0 size=N/A time=00:13:13.29 bitrate=N/A speed=19.5x    frame=19267 fps=467 q=-0.0 size=N/A time=00:13:23.59 bitrate=N/A speed=19.5x    frame=19475 fps=466 q=-0.0 size=N/A time=00:13:32.26 bitrate=N/A speed=19.5x    frame=19754 fps=467 q=-0.0 size=N/A time=00:13:43.90 bitrate=N/A speed=19.5x    frame=20031 fps=468 q=-0.0 size=N/A time=00:13:55.45 bitrate=N/A speed=19.5x    frame=20300 fps=469 q=-0.0 size=N/A time=00:14:06.67 bitrate=N/A speed=19.6x    frame=20520 fps=468 q=-0.0 size=N/A time=00:14:15.85 bitrate=N/A speed=19.5x    frame=20769 fps=468 q=-0.0 size=N/A time=00:14:26.24 bitrate=N/A speed=19.5x    frame=21023 fps=469 q=-0.0 size=N/A time=00:14:36.83 bitrate=N/A speed=19.5x    frame=21269 fps=469 q=-0.0 size=N/A time=00:14:47.09 bitrate=N/A speed=19.6x    frame=21498 fps=469 q=-0.0 size=N/A time=00:14:56.64 bitrate=N/A speed=19.5x    frame=21710 fps=468 q=-0.0 size=N/A time=00:15:05.48 bitrate=N/A speed=19.5x    frame=21956 fps=468 q=-0.0 size=N/A time=00:15:15.74 bitrate=N/A speed=19.5x    frame=22216 fps=468 q=-0.0 size=N/A time=00:15:26.59 bitrate=N/A speed=19.5x    frame=22442 fps=468 q=-0.0 size=N/A time=00:15:36.01 bitrate=N/A speed=19.5x    frame=22670 fps=468 q=-0.0 size=N/A time=00:15:45.52 bitrate=N/A speed=19.5x    frame=22908 fps=468 q=-0.0 size=N/A time=00:15:55.45 bitrate=N/A speed=19.5x    frame=23176 fps=468 q=-0.0 size=N/A time=00:16:06.63 bitrate=N/A speed=19.5x    frame=23429 fps=469 q=-0.0 size=N/A time=00:16:17.18 bitrate=N/A speed=19.5x    frame=23712 fps=469 q=-0.0 size=N/A time=00:16:28.98 bitrate=N/A speed=19.6x    frame=23954 fps=469 q=-0.0 size=N/A time=00:16:39.08 bitrate=N/A speed=19.6x    frame=24184 fps=469 q=-0.0 size=N/A time=00:16:48.67 bitrate=N/A speed=19.6x    frame=24399 fps=469 q=-0.0 size=N/A time=00:16:57.64 bitrate=N/A speed=19.5x    frame=24644 fps=469 q=-0.0 size=N/A time=00:17:07.86 bitrate=N/A speed=19.5x    frame=24902 fps=469 q=-0.0 size=N/A time=00:17:18.62 bitrate=N/A speed=19.6x    frame=25130 fps=469 q=-0.0 size=N/A time=00:17:28.13 bitrate=N/A speed=19.6x    frame=25367 fps=469 q=-0.0 size=N/A time=00:17:38.01 bitrate=N/A speed=19.5x    frame=25648 fps=469 q=-0.0 size=N/A time=00:17:49.73 bitrate=N/A speed=19.6x    frame=25920 fps=470 q=-0.0 size=N/A time=00:18:01.08 bitrate=N/A speed=19.6x    frame=26165 fps=470 q=-0.0 size=N/A time=00:18:11.29 bitrate=N/A speed=19.6x    frame=26377 fps=469 q=-0.0 size=N/A time=00:18:20.14 bitrate=N/A speed=19.6x    frame=26603 fps=469 q=-0.0 size=N/A time=00:18:29.56 bitrate=N/A speed=19.6x    frame=26821 fps=469 q=-0.0 size=N/A time=00:18:38.65 bitrate=N/A speed=19.5x    frame=27036 fps=468 q=-0.0 size=N/A time=00:18:47.62 bitrate=N/A speed=19.5x    frame=27265 fps=468 q=-0.0 size=N/A time=00:18:57.17 bitrate=N/A speed=19.5x    frame=27484 fps=468 q=-0.0 size=N/A time=00:19:06.31 bitrate=N/A speed=19.5x    frame=27732 fps=468 q=-0.0 size=N/A time=00:19:16.65 bitrate=N/A speed=19.5x    frame=27991 fps=468 q=-0.0 size=N/A time=00:19:27.45 bitrate=N/A speed=19.5x    frame=28221 fps=468 q=-0.0 size=N/A time=00:19:37.05 bitrate=N/A speed=19.5x    frame=28448 fps=468 q=-0.0 size=N/A time=00:19:46.51 bitrate=N/A speed=19.5x    frame=28647 fps=467 q=-0.0 size=N/A time=00:19:54.81 bitrate=N/A speed=19.5x    frame=28887 fps=467 q=-0.0 size=N/A time=00:20:04.82 bitrate=N/A speed=19.5x    frame=29142 fps=467 q=-0.0 size=N/A time=00:20:15.46 bitrate=N/A speed=19.5x    frame=29373 fps=467 q=-0.0 size=N/A time=00:20:25.09 bitrate=N/A speed=19.5x    frame=29585 fps=466 q=-0.0 size=N/A time=00:20:33.94 bitrate=N/A speed=19.5x    frame=29777 fps=466 q=-0.0 size=N/A time=00:20:41.94 bitrate=N/A speed=19.4x    frame=29991 fps=465 q=-0.0 size=N/A time=00:20:50.87 bitrate=N/A speed=19.4x    frame=30214 fps=465 q=-0.0 size=N/A time=00:21:00.17 bitrate=N/A speed=19.4x    frame=30485 fps=466 q=-0.0 size=N/A time=00:21:11.47 bitrate=N/A speed=19.4x    frame=30747 fps=466 q=-0.0 size=N/A time=00:21:22.40 bitrate=N/A speed=19.4x    frame=31006 fps=466 q=-0.0 size=N/A time=00:21:33.20 bitrate=N/A speed=19.4x    frame=31279 fps=467 q=-0.0 size=N/A time=00:21:44.59 bitrate=N/A speed=19.5x    frame=31534 fps=467 q=-0.0 size=N/A time=00:21:55.23 bitrate=N/A speed=19.5x    frame=31776 fps=467 q=-0.0 size=N/A time=00:22:05.32 bitrate=N/A speed=19.5x    frame=32011 fps=467 q=-0.0 size=N/A time=00:22:15.12 bitrate=N/A speed=19.5x    frame=32174 fps=466 q=-0.0 size=N/A time=00:22:21.92 bitrate=N/A speed=19.4x    frame=32393 fps=465 q=-0.0 size=N/A time=00:22:31.05 bitrate=N/A speed=19.4x    frame=32561 fps=464 q=-0.0 size=N/A time=00:22:38.06 bitrate=N/A speed=19.4x    frame=32718 fps=463 q=-0.0 size=N/A time=00:22:44.61 bitrate=N/A speed=19.3x    frame=32872 fps=462 q=-0.0 size=N/A time=00:22:51.03 bitrate=N/A speed=19.3x    frame=33026 fps=461 q=-0.0 size=N/A time=00:22:57.45 bitrate=N/A speed=19.2x    frame=33186 fps=460 q=-0.0 size=N/A time=00:23:04.13 bitrate=N/A speed=19.2x    frame=33353 fps=459 q=-0.0 size=N/A time=00:23:11.09 bitrate=N/A speed=19.1x    frame=33522 fps=458 q=-0.0 size=N/A time=00:23:18.14 bitrate=N/A speed=19.1x    frame=33688 fps=457 q=-0.0 size=N/A time=00:23:25.07 bitrate=N/A speed=19.1x    frame=33846 fps=456 q=-0.0 size=N/A time=00:23:31.66 bitrate=N/A speed=  19x    frame=34001 fps=455 q=-0.0 size=N/A time=00:23:38.12 bitrate=N/A speed=  19x    frame=34190 fps=454 q=-0.0 size=N/A time=00:23:46.00 bitrate=N/A speed=18.9x    frame=34405 fps=454 q=-0.0 size=N/A time=00:23:54.97 bitrate=N/A speed=18.9x    frame=34646 fps=454 q=-0.0 size=N/A time=00:24:05.02 bitrate=N/A speed=18.9x    [Parsed_ssim_10 @ 000001b1d6419440] SSIM Y:0.994864 (22.894168) U:0.994709 (22.764611) V:0.994947 (22.964643) All:0.994852 (22.883913)
[out#0/null @ 000001b1c0db0e80] video:14920KiB audio:271548KiB subtitle:0KiB other streams:0KiB global headers:0KiB muxing overhead: unknown
frame=34722 fps=454 q=-0.0 Lsize=N/A time=00:24:08.19 bitrate=N/A speed=18.9x    
